<svg height="511pt" viewBox="0 0 511.92457 511" width="511pt" xmlns="http://www.w3.org/2000/svg"><path d="m150.425781 165.746094c4.660157-.355469 9.324219-.710938 14.070313-.710938 5.484375 0 10.96875.347656 16.347656.832032l103.835938-77.367188c-.851563-4.921875-1.296876-9.902344-1.328126-14.894531 0-2.394531.175782-4.746094.355469-7.09375zm0 0"/><path d="m164.496094 457.605469c60.59375 0 109.714844-49.121094 109.714844-109.714844s-49.121094-109.714844-109.714844-109.714844-109.714844 49.121094-109.714844 109.714844c.066406 60.566406 49.148438 109.648437 109.714844 109.714844zm0-27.429688c-5.050782 0-9.144532-4.09375-9.144532-9.140625 0-5.050781 4.09375-9.144531 9.144532-9.144531 5.046875 0 9.140625 4.09375 9.140625 9.144531 0 5.046875-4.09375 9.140625-9.140625 9.140625zm58.183594-24.101562c-2.613282 2.617187-6.546876 3.398437-9.964844 1.984375-3.414063-1.414063-5.644532-4.75-5.644532-8.445313 0-3.699219 2.230469-7.035156 5.644532-8.449219 3.417968-1.414062 7.351562-.632812 9.964844 1.984376 3.570312 3.570312 3.570312 9.355468 0 12.925781zm14.957031-67.328125c5.050781 0 9.144531 4.09375 9.144531 9.144531s-4.09375 9.144531-9.144531 9.144531c-5.046875 0-9.140625-4.09375-9.140625-9.144531s4.09375-9.144531 9.140625-9.144531zm-27.882813-49.039063c2.613282-2.617187 6.546875-3.398437 9.960938-1.984375 3.417968 1.414063 5.644531 4.75 5.644531 8.445313 0 3.699219-2.226563 7.035156-5.644531 8.449219-3.414063 1.414062-7.347656.632812-9.960938-1.984376-3.570312-3.570312-3.570312-9.355468 0-12.925781zm-45.257812-24.101562c5.046875 0 9.140625 4.09375 9.140625 9.140625 0 5.050781-4.09375 9.144531-9.140625 9.144531-5.050782 0-9.144532-4.09375-9.144532-9.144531 0-5.046875 4.09375-9.140625 9.144532-9.140625zm0 36.570312c25.246094 0 45.714844 20.46875 45.714844 45.714844s-20.46875 45.714844-45.714844 45.714844c-25.25 0-45.714844-20.46875-45.714844-45.714844.03125-25.234375 20.480469-45.683594 45.714844-45.714844zm-58.1875-12.46875c2.617187-2.617187 6.546875-3.398437 9.964844-1.984375 3.417968 1.414063 5.644531 4.75 5.644531 8.445313 0 3.699219-2.226563 7.035156-5.644531 8.449219-3.417969 1.414062-7.347657.632812-9.964844-1.984376-3.566406-3.570312-3.566406-9.355468 0-12.925781zm0 103.441407c2.617187-2.617188 6.546875-3.398438 9.964844-1.984376 3.417968 1.414063 5.644531 4.75 5.644531 8.449219 0 3.695313-2.226563 7.03125-5.644531 8.445313-3.417969 1.414062-7.347657.632812-9.964844-1.984375-3.566406-3.570313-3.566406-9.355469 0-12.925781zm-14.957032-54.402344c5.050782 0 9.144532 4.09375 9.144532 9.144531s-4.09375 9.144531-9.144532 9.144531c-5.050781 0-9.140624-4.09375-9.140624-9.144531s4.089843-9.144531 9.140624-9.144531zm0 0"/><path d="m191.921875 347.890625c0 15.148437-12.277344 27.429687-27.425781 27.429687-15.148438 0-27.429688-12.28125-27.429688-27.429687s12.28125-27.429687 27.429688-27.429687c15.148437 0 27.425781 12.28125 27.425781 27.429687zm0 0"/><path d="m374.78125 37.035156c-20.199219 0-36.570312 16.371094-36.570312 36.570313s16.371093 36.570312 36.570312 36.570312c20.195312 0 36.570312-16.371093 36.570312-36.570312 0-9.699219-3.851562-19-10.710937-25.859375s-16.160156-10.710938-25.859375-10.710938zm0 45.710938c-5.050781 0-9.144531-4.089844-9.144531-9.140625s4.09375-9.144531 9.144531-9.144531c5.046875 0 9.140625 4.09375 9.140625 9.144531s-4.09375 9.140625-9.140625 9.140625zm0 0"/><path d="m374.78125.460938c-40.394531 0-73.144531 32.75-73.144531 73.144531s32.75 73.140625 73.144531 73.140625 73.140625-32.746094 73.140625-73.140625c-.042969-40.378907-32.765625-73.097657-73.140625-73.144531zm0 128c-30.296875 0-54.859375-24.558594-54.859375-54.855469s24.5625-54.859375 54.859375-54.859375 54.855469 24.5625 54.855469 54.859375c-.027344 30.285156-24.570313 54.828125-54.855469 54.855469zm0 0"/><path d="m475.351562 247.320312c0 5.046876-4.09375 9.140626-9.140624 9.140626-5.050782 0-9.144532-4.09375-9.144532-9.140626 0-5.050781 4.09375-9.144531 9.144532-9.144531 5.046874 0 9.140624 4.09375 9.140624 9.144531zm0 0"/><path d="m442.613281 134.6875 17.925781 48.953125c6.714844-.582031 13.476563-.109375 20.042969 1.40625l-25.171875-68.425781c-3.519531 6.519531-7.816406 12.585937-12.796875 18.066406zm0 0"/><path d="m491.34375 209.148438c-10.265625-6.792969-22.851562-9.128907-34.871094-6.472657-20.96875 4.617188-35.921875 23.171875-35.976562 44.644531.003906 16.019532 8.390625 30.867188 22.109375 39.136719s30.765625 8.757813 44.933593 1.28125c10.882813-5.769531 18.976563-15.683593 22.457032-27.5 1.308594-4.179687 1.957031-8.539062 1.925781-12.917969.011719-15.378906-7.726563-29.726562-20.578125-38.171874zm-25.132812 65.597656c-4.828126-.027344-9.5625-1.339844-13.714844-3.800782-.136719-.054687-.25-.148437-.375-.203124-.816406-.492188-1.582032-1.011719-2.339844-1.582032-.121094-.109375-.25-.179687-.367188-.300781-10.445312-8.265625-13.390624-22.871094-6.964843-34.539063 6.425781-11.671874 20.34375-16.988281 32.914062-12.582031 12.570313 4.40625 20.121094 17.25 17.851563 30.378907-2.265625 13.125-13.683594 22.695312-27.003906 22.628906zm0 0"/><path d="m116.304688 190.550781c-82.335938 25.253907-131.261719 109.730469-112.191407 193.714844 19.070313 83.980469 99.679688 139.046875 184.847657 126.265625 85.164062-12.78125 146.0625-89.082031 139.640624-174.960938-6.417968-85.882812-77.984374-152.277343-164.105468-152.25-16.335938.007813-32.578125 2.445313-48.191406 7.230469zm176.191406 157.339844c0 70.691406-57.308594 128-128 128-70.695313 0-128-57.308594-128-128s57.304687-128 128-128c70.660156.074219 127.921875 57.339844 128 128zm0 0"/><path d="m428.53125 298.929688-82.945312 72.96875c-1.269532 10.101562-3.390626 20.074218-6.34375 29.816406l106.578124-93.777344c-6.199218-2.078125-12.03125-5.117188-17.289062-9.007812zm0 0"/></svg>