<svg height="511pt" viewBox="0 0 511.62522 511" width="511pt" xmlns="http://www.w3.org/2000/svg"><path d="m332.734375 129.339844-8.152344-8.15625c-2.039062-2.054688-3.875-4.304688-5.488281-6.710938l-74.191406 74.175782 20.332031 20.34375 74.175781-74.175782c-2.390625-1.613281-4.625-3.445312-6.675781-5.476562zm0 0"/><path d="m0 401.570312c-.0117188 5.058594 2 9.914063 5.585938 13.484376l33.269531 33.269531c7.554687 7.214843 19.441406 7.214843 26.992187 0l125.925782-125.921875 63.238281-86.210938c2.84375-3.84375 2.429687-9.1875-.96875-12.550781l-11.886719-11.886719-11.882812-11.886718c-3.367188-3.398438-8.71875-3.808594-12.5625-.96875l-86.183594 63.242187-125.941406 125.925781c-3.589844 3.574219-5.601563 8.4375-5.585938 13.503906zm112.457031-92.964843 13.304688-13.3125c3.570312-3.570313 9.359375-3.566407 12.929687.003906 3.570313 3.574219 3.570313 9.363281-.003906 12.933594l-13.300781 13.300781c-2.296875 2.378906-5.695313 3.332031-8.894531 2.496094-3.195313-.839844-5.691407-3.335938-6.527344-6.53125-.835938-3.195313.117187-6.597656 2.492187-8.890625zm-79.871093 79.816406 53.230468-53.203125c3.582032-3.566406 9.378906-3.554688 12.945313.027344 3.566406 3.582031 3.554687 9.378906-.027344 12.945312l-53.222656 53.1875c-2.3125 2.308594-5.683594 3.207032-8.839844 2.355469-3.15625-.847656-5.621094-3.316406-6.464844-6.476563-.84375-3.15625.0625-6.527343 2.378907-8.835937zm0 0"/><path d="m448.859375 51.351562c.261719-.496093.566406-.96875.914063-1.40625 6.707031-10.777343 5.082031-24.761718-3.921876-33.710937l-8.164062-8.15625c-10.859375-10.355469-27.9375-10.355469-38.792969 0l-61.386719 61.375c-6.515624 6.542969-9.308593 15.921875-7.421874 24.960937.535156 1.03125.871093 2.152344.976562 3.308594 1.304688 3.960938 3.511719 7.5625 6.445312 10.523438l8.15625 8.167968c2.960938 2.902344 6.550782 5.09375 10.488282 6.398438 1.175781.101562 2.320312.4375 3.363281.988281 9.035156 1.878907 18.40625-.914062 24.941406-7.425781l40.667969-40.640625 20.707031-20.707031c1.113281-1.136719 2.128907-2.363282 3.027344-3.675782zm0 0"/><path d="m471.324219 162.238281 13.757812-13.625-53.484375-53.484375-13.6875 13.6875zm0 0"/><path d="m458.183594 68.539062-13.65625 13.660157 53.539062 53.542969 13.558594-13.421876zm0 0"/><path d="m371.628906 507.40625c1.660156 2.75 4.632813 4.433594 7.84375 4.445312h78.171875c3.097657 0 5.988281-1.570312 7.671875-4.171874l41.882813-64.5c1.902343-2.890626 1.996093-6.613282.238281-9.59375l-42.460938-72.59375c-1.625-2.820313-4.632812-4.5625-7.886718-4.570313h-77.058594c-3.363281-.003906-6.457031 1.839844-8.054688 4.800781l-39.128906 72.683594c-1.523437 2.832031-1.449218 6.253906.199219 9.015625zm48.816406-114.414062c25.246094 0 45.710938 20.46875 45.710938 45.714843 0 25.246094-20.464844 45.714844-45.710938 45.714844-25.25 0-45.714843-20.46875-45.714843-45.714844.027343-25.234375 20.476562-45.683593 45.714843-45.714843zm0 0"/><path d="m447.871094 438.707031c0 15.148438-12.277344 27.429688-27.425782 27.429688-15.148437 0-27.429687-12.28125-27.429687-27.429688 0-15.148437 12.28125-27.429687 27.429687-27.429687 15.148438 0 27.425782 12.28125 27.425782 27.429687zm0 0"/><path d="m250.222656 420.421875h-61.84375l-22.855468 45.714844 22.855468 45.714843h61.84375l22.855469-45.714843zm-30.921875 73.144531c-15.148437 0-27.429687-12.28125-27.429687-27.429687 0-15.148438 12.28125-27.429688 27.429687-27.429688 15.148438 0 27.429688 12.28125 27.429688 27.429688 0 15.148437-12.28125 27.429687-27.429688 27.429687zm0 0"/><path d="m228.445312 466.136719c0 5.046875-4.09375 9.140625-9.144531 9.140625s-9.144531-4.09375-9.144531-9.140625c0-5.050781 4.09375-9.144531 9.144531-9.144531s9.144531 4.09375 9.144531 9.144531zm0 0"/></svg>